{
  "source": "C:\\Users\\Peter\\Desktop\\stuff\\MIUN\\quantitative_research\\video_compression\\videos\\BVI-HD\\BVI-HD_CDVL_videos\\ORIG\\TreeTrunk_1920x1080_50fps.mp4",
  "output": "C:\\Users\\Peter\\Desktop\\stuff\\MIUN\\quantitative_research\\video_compression\\compressed_videos\\BVI-HD\\av1\\8\\TreeTrunk_1920x1080_50fps_av1.mkv",
  "codec": "av1",
  "ok": "Input #0, mov,mp4,m4a,3gp,3g2,mj2, from 'C:\\Users\\Peter\\Desktop\\stuff\\MIUN\\quantitative_research\\video_compression\\videos\\BVI-HD\\BVI-HD_CDVL_videos\\ORIG\\TreeTrunk_1920x1080_50fps.mp4':\n  Metadata:\n    major_brand     : isom\n    minor_version   : 512\n    compatible_brands: isomiso2avc1mp41\n    encoder         : Lavf54.28.101\n  Duration: 00:00:05.00, start: 0.000000, bitrate: 622415 kb/s\n  Stream #0:0[0x1](und): Video: h264 (High 4:4:4 Predictive) (avc1 / 0x31637661), yuv420p(progressive), 1920x1080, 622410 kb/s, 50 fps, 50 tbr, 50 tbn (default)\n    Metadata:\n      handler_name    : VideoHandler\n      vendor_id       : [0][0][0][0]\n[out#0/matroska @ 000001c5ffd8f0c0] Codec AVOption b:a (set bitrate (in bits/s)) has not been used for any stream. The most likely reason is either wrong type (e.g. a video option with no video streams) or that it is a private option of some decoder which was not actually used for any stream.\nStream mapping:\n  Stream #0:0 -> #0:0 (h264 (native) -> av1 (libsvtav1))\nPress [q] to stop, [?] for help\nSvt[info]: -------------------------------------------\nSvt[info]: SVT [version]:\tSVT-AV1 Encoder Lib v3.1.0-19-g6ecfe8ec\nSvt[info]: SVT [build]  :\tGCC 15.2.0\t 64 bit\nSvt[info]: LIB Build date: Aug 17 2025 11:37:13\nSvt[info]: -------------------------------------------\nSvt[info]: Level of Parallelism: 5\nSvt[info]: Number of PPCS 93\nSvt[info]: [asm level on system : up to avx2]\nSvt[info]: [asm level selected : up to avx2]\nSvt[info]: -------------------------------------------\nSvt[info]: SVT [config]: main profile\ttier (auto)\tlevel (auto)\nSvt[info]: SVT [config]: width / height / fps numerator / fps denominator \t\t: 1920 / 1080 / 50 / 1\nSvt[info]: SVT [config]: bit-depth / color format \t\t\t\t\t: 8 / YUV420\nSvt[info]: SVT [config]: preset / tune / pred struct \t\t\t\t\t: 4 / PSNR / random access\nSvt[info]: SVT [config]: gop size / mini-gop size / key-frame type \t\t\t: 321 / 16 / key frame\nSvt[info]: SVT [config]: BRC mode / target bitrate (kbps)\t\t\t\t: VBR / 8000 \nSvt[info]: SVT [config]: AQ mode / Variance Boost \t\t\t\t\t: 2 / 0\nSvt[info]: SVT [config]: sharpness / luminance-based QP bias \t\t\t\t: 0 / 0\nSvt[info]: SVT [config]: QP scale compress strength \t\t\t\t\t: 0\nSvt[info]: -------------------------------------------\nOutput #0, matroska, to 'C:\\Users\\Peter\\Desktop\\stuff\\MIUN\\quantitative_research\\video_compression\\compressed_videos\\BVI-HD\\av1\\8\\TreeTrunk_1920x1080_50fps_av1.mkv':\n  Metadata:\n    major_brand     : isom\n    minor_version   : 512\n    compatible_brands: isomiso2avc1mp41\n    encoder         : Lavf62.3.100\n  Stream #0:0(und): Video: av1 (AV01 / 0x31305641), yuv420p(tv, progressive), 1920x1080, q=2-31, 8000 kb/s, 50 fps, 1k tbn (default)\n    Metadata:\n      encoder         : Lavc62.11.100 libsvtav1\n      handler_name    : VideoHandler\n      vendor_id       : [0][0][0][0]\n    Side data:\n      cpb: bitrate max/min/avg: 0/0/8000000 buffer size: 8000000 vbv_delay: N/A\nframe=    0 fps=0.0 q=0.0 size=       0KiB time=N/A bitrate=N/A speed=N/A elapsed=0:00:01.70    \nframe=    0 fps=0.0 q=0.0 size=       0KiB time=N/A bitrate=N/A speed=N/A elapsed=0:00:02.48    \nframe=    0 fps=0.0 q=0.0 size=       0KiB time=N/A bitrate=N/A speed=N/A elapsed=0:00:03.01    \nframe=    0 fps=0.0 q=0.0 size=       0KiB time=N/A bitrate=N/A speed=N/A elapsed=0:00:03.65    \nframe=    0 fps=0.0 q=0.0 size=       0KiB time=N/A bitrate=N/A speed=N/A elapsed=0:00:04.30    \nframe=    0 fps=0.0 q=0.0 size=       0KiB time=N/A bitrate=N/A speed=N/A elapsed=0:00:04.94    \nframe=    0 fps=0.0 q=0.0 size=       0KiB time=N/A bitrate=N/A speed=N/A elapsed=0:00:05.54    \nframe=    0 fps=0.0 q=0.0 size=       0KiB time=N/A bitrate=N/A speed=N/A elapsed=0:00:06.13    \nframe=    0 fps=0.0 q=0.0 size=       0KiB time=N/A bitrate=N/A speed=N/A elapsed=0:00:06.71    \nframe=    0 fps=0.0 q=0.0 size=       0KiB time=N/A bitrate=N/A speed=N/A elapsed=0:00:07.24    \nframe=    0 fps=0.0 q=0.0 size=       0KiB time=N/A bitrate=N/A speed=N/A elapsed=0:00:07.78    \nframe=    0 fps=0.0 q=0.0 size=       0KiB time=N/A bitrate=N/A speed=N/A elapsed=0:00:08.34    \nframe=    1 fps=0.1 q=10.0 size=       1KiB time=00:00:00.00 bitrate=N/A speed=   0x elapsed=0:00:08.90    \nframe=    1 fps=0.1 q=10.0 size=       1KiB time=00:00:00.00 bitrate=N/A speed=   0x elapsed=0:00:09.45    \nframe=    3 fps=0.3 q=31.0 size=       1KiB time=00:00:00.02 bitrate= 285.2kbits/s speed=0.00199x elapsed=0:00:10.04    \nframe=    8 fps=0.8 q=30.0 size=       1KiB time=00:00:00.14 bitrate=  40.7kbits/s speed=0.0132x elapsed=0:00:10.61    \nframe=   11 fps=1.0 q=28.0 size=       1KiB time=00:00:00.20 bitrate=  28.5kbits/s speed=0.0179x elapsed=0:00:11.19    \nframe=   16 fps=1.4 q=26.0 size=       1KiB time=00:00:00.30 bitrate=  19.0kbits/s speed=0.0255x elapsed=0:00:11.75    \nframe=   22 fps=1.8 q=25.0 size=       1KiB time=00:00:00.42 bitrate=  13.6kbits/s speed=0.0342x elapsed=0:00:12.27    \nframe=   27 fps=2.1 q=26.0 size=       1KiB time=00:00:00.52 bitrate=  11.0kbits/s speed=0.0405x elapsed=0:00:12.85    \nframe=   31 fps=2.3 q=20.0 size=       1KiB time=00:00:00.60 bitrate=   9.5kbits/s speed=0.0446x elapsed=0:00:13.44    \nframe=   34 fps=2.4 q=27.0 size=       1KiB time=00:00:00.66 bitrate=   8.6kbits/s speed=0.0471x elapsed=0:00:14.00    \nframe=   39 fps=2.7 q=22.0 size=       1KiB time=00:00:00.74 bitrate=   7.7kbits/s speed=0.0509x elapsed=0:00:14.52    \nframe=   43 fps=2.8 q=27.0 size=       1KiB time=00:00:00.84 bitrate=   6.8kbits/s speed=0.0555x elapsed=0:00:15.13    \nframe=   48 fps=3.0 q=25.0 size=       1KiB time=00:00:00.94 bitrate=   6.1kbits/s speed=0.0597x elapsed=0:00:15.74    \nframe=   54 fps=3.3 q=26.0 size=       1KiB time=00:00:01.06 bitrate=   5.4kbits/s speed=0.0651x elapsed=0:00:16.29    \nframe=   58 fps=3.4 q=26.0 size=       1KiB time=00:00:01.12 bitrate=   5.1kbits/s speed=0.0665x elapsed=0:00:16.84    \nframe=   62 fps=3.6 q=25.0 size=       1KiB time=00:00:01.20 bitrate=   4.8kbits/s speed=0.0689x elapsed=0:00:17.42    \nframe=   70 fps=3.9 q=28.0 size=       1KiB time=00:00:01.36 bitrate=   4.2kbits/s speed=0.0754x elapsed=0:00:18.02    \nframe=   74 fps=4.0 q=26.0 size=       1KiB time=00:00:01.44 bitrate=   4.0kbits/s speed=0.0775x elapsed=0:00:18.58    \nframe=   79 fps=4.1 q=24.0 size=       1KiB time=00:00:01.54 bitrate=   3.7kbits/s speed=0.0803x elapsed=0:00:19.17    \nframe=   84 fps=4.3 q=27.0 size=       1KiB time=00:00:01.66 bitrate=   3.4kbits/s speed=0.084x elapsed=0:00:19.75    \nframe=   88 fps=4.3 q=27.0 size=       1KiB time=00:00:01.74 bitrate=   3.3kbits/s speed=0.0857x elapsed=0:00:20.30    \nframe=   94 fps=4.5 q=25.0 size=       1KiB time=00:00:01.84 bitrate=   3.1kbits/s speed=0.088x elapsed=0:00:20.90    \nframe=   99 fps=4.6 q=26.0 size=       1KiB time=00:00:01.96 bitrate=   2.9kbits/s speed=0.0914x elapsed=0:00:21.45    \nframe=  104 fps=4.7 q=27.0 size=       1KiB time=00:00:02.06 bitrate=   2.8kbits/s speed=0.0935x elapsed=0:00:22.02    \nframe=  109 fps=4.8 q=23.0 size=       1KiB time=00:00:02.14 bitrate=   2.7kbits/s speed=0.0946x elapsed=0:00:22.61    \nframe=  114 fps=4.9 q=27.0 size=       1KiB time=00:00:02.26 bitrate=   2.5kbits/s speed=0.0975x elapsed=0:00:23.18    \nframe=  119 fps=5.0 q=26.0 size=       1KiB time=00:00:02.36 bitrate=   2.4kbits/s speed=0.0993x elapsed=0:00:23.77    \nframe=  125 fps=5.1 q=19.0 size=       1KiB time=00:00:02.48 bitrate=   2.3kbits/s speed=0.102x elapsed=0:00:24.36    \nframe=  131 fps=5.3 q=29.0 size=       1KiB time=00:00:02.60 bitrate=   2.2kbits/s speed=0.104x elapsed=0:00:24.93    \nframe=  137 fps=5.4 q=19.0 size=       1KiB time=00:00:02.70 bitrate=   2.1kbits/s speed=0.106x elapsed=0:00:25.48    \nframe=  140 fps=5.4 q=28.0 size=       1KiB time=00:00:02.78 bitrate=   2.1kbits/s speed=0.107x elapsed=0:00:26.04    \nframe=  146 fps=5.5 q=27.0 size=       1KiB time=00:00:02.90 bitrate=   2.0kbits/s speed=0.109x elapsed=0:00:26.59    \nframe=  151 fps=5.6 q=26.0 size=       1KiB time=00:00:03.00 bitrate=   1.9kbits/s speed=0.11x elapsed=0:00:27.15    \nframe=  157 fps=5.7 q=20.0 size=       1KiB time=00:00:03.12 bitrate=   1.8kbits/s speed=0.113x elapsed=0:00:27.69    \nframe=  163 fps=5.8 q=30.0 size=       1KiB time=00:00:03.24 bitrate=   1.8kbits/s speed=0.115x elapsed=0:00:28.26    \nframe=  169 fps=5.9 q=20.0 size=       1KiB time=00:00:03.36 bitrate=   1.7kbits/s speed=0.117x elapsed=0:00:28.79    \nframe=  173 fps=5.9 q=24.0 size=       1KiB time=00:00:03.44 bitrate=   1.7kbits/s speed=0.117x elapsed=0:00:29.33    \nframe=  181 fps=6.0 q=25.0 size=       1KiB time=00:00:03.56 bitrate=   1.6kbits/s speed=0.119x elapsed=0:00:29.92    \nframe=  185 fps=6.1 q=22.0 size=       1KiB time=00:00:03.68 bitrate=   1.6kbits/s speed=0.121x elapsed=0:00:30.51    \nframe=  193 fps=6.2 q=15.0 size=       1KiB time=00:00:03.80 bitrate=   1.5kbits/s speed=0.122x elapsed=0:00:31.06    \nframe=  199 fps=6.3 q=29.0 size=       1KiB time=00:00:03.92 bitrate=   1.5kbits/s speed=0.124x elapsed=0:00:31.66    \nframe=  205 fps=6.4 q=26.0 size=       1KiB time=00:00:04.08 bitrate=   1.4kbits/s speed=0.127x elapsed=0:00:32.24    \nframe=  211 fps=6.4 q=30.0 size=       1KiB time=00:00:04.20 bitrate=   1.4kbits/s speed=0.128x elapsed=0:00:32.81    \nframe=  217 fps=6.5 q=24.0 size=       1KiB time=00:00:04.32 bitrate=   1.3kbits/s speed=0.129x elapsed=0:00:33.37    \nframe=  225 fps=6.6 q=16.0 size=       1KiB time=00:00:04.48 bitrate=   1.3kbits/s speed=0.132x elapsed=0:00:33.93    \nframe=  233 fps=6.8 q=24.0 size=       1KiB time=00:00:04.60 bitrate=   1.2kbits/s speed=0.133x elapsed=0:00:34.51    \nframe=  237 fps=6.8 q=30.0 size=       1KiB time=00:00:04.72 bitrate=   1.2kbits/s speed=0.135x elapsed=0:00:35.05    \n[out#0/matroska @ 000001c5ffd8f0c0] video:4006KiB audio:0KiB subtitle:0KiB other streams:0KiB global headers:0KiB muxing overhead: 0.046653%\nframe=  250 fps=7.0 q=28.0 Lsize=    4008KiB time=00:00:04.98 bitrate=6593.6kbits/s speed=0.14x elapsed=0:00:35.49    \n",
  "seconds": 36.24336528778076,
  "probe_out": {}
}